<?xml version="1.0" ?><svg id="Layer_1" style="enable-background:new 0 0 52 52;" version="1.1" viewBox="0 0 52 52" xml:space="preserve" xmlns="http://www.w3.org/2000/svg" xmlns:xlink="http://www.w3.org/1999/xlink"><style type="text/css">
	.st0{fill:#231F20;}
</style><g><g><path class="st0" d="M42.7905655,5.6076131c1.5485535-0.0053945,4.1335144-0.5636964,5.3244247,0.4859481    c1.216568,1.0722585,0.6423607,3.7181664,0.6641388,5.2998266c0.057251,4.1579981,0.0760269,8.3164015,0.0749588,12.4747667    c-0.0009766,3.7888241,0.3478546,7.7540112-0.0397568,11.5159054c-0.410305,3.9821625-3.0260201,6.5901489-4.6048965,10.2809563    c0.5889664-0.0758934,1.1779327-0.1517906,1.7668991-0.227684c-4.8012123-5.8996124-3.2435951-12.5488358-3.193634-19.5893059    c0.0118103-1.6643448-0.2798882-19.8118515,0.3019562-19.7720261c1.4452667,0.0989237,1.4391403-2.1514959,0-2.25    c-1.9200363-0.1314201-2.4432907,1.1306195-2.6658821,2.8703809c-0.6707153,5.2423024,0.0961266,11.0183716,0.1147156,16.3023491    c0.0305557,8.6851463-2.0049629,16.8328743,3.8518524,24.0295906c0.4225845,0.5192566,1.4967804,0.4037552,1.7669029-0.227684    c1.5746117-3.6808434,4.7546158-6.4123001,4.9068909-10.4569397c0.2281189-6.0589848,0.0634537-12.1705589,0.0321808-18.2333527    c-0.0148468-2.8787928-0.0431976-5.7575159-0.0912971-8.635951c-0.0216522-1.2957458,0.2913361-3.0961938-0.2824707-4.3049793    c-1.3415794-2.8261771-5.3688354-1.8207116-7.9269829-1.8118005C41.3430328,3.3626554,41.3402023,5.6126652,42.7905655,5.6076131    L42.7905655,5.6076131z"/></g><g><path class="st0" d="M41.9571609,12.4603081c2.389183-0.0364685,4.7782211-0.0425091,7.1675568-0.0181217    c1.4482536,0.014781,1.4493752-2.2352076,0-2.25c-2.3893356-0.0243874-4.7783775-0.0183468-7.1675568,0.0181217    C40.510685,10.2323875,40.5063782,12.4824533,41.9571609,12.4603081L41.9571609,12.4603081z"/></g><g><path class="st0" d="M36.2451859,12.4784937c0.0025253,6.2395315,0.0050507,12.4790621,0.007576,18.7185936    c0.0013275,3.2839622,0.0026588,6.5679283,0.0039864,9.8518906c0.0005417,1.3348122,0.4008179,3.7321701,0.0019951,4.9259453    c-0.7234344,2.1654053-2.4586411,2.626152-4.2456055,2.9270287c-5.6182156,0.9459648-12.2762928,0.2817688-17.9749031,0.1698723    c-3.2520657-0.0638542-6.3830562,0.2143974-9.0554914-1.7425957c-2.3106773-1.6920815-1.814127-2.7135124-1.8347788-5.2998314    c-0.0132706-1.6619377-0.0192387-3.3239174-0.0200093-4.9859047C3.1250286,30.727684,3.2095685,24.4120102,3.3642287,18.0981388    c0.0732634-2.9909172,0.1629865-5.9814167,0.2657743-8.9714594c0.1431727-4.1648154-0.5779536-6.075429,4.0945101-6.1449947    c2.8658514-0.0426681,5.7317028-0.0853362,8.5975542-0.1280046c3.3063164-0.049226,7.893961-0.8034983,10.9075623,0.7850904    c3.8634911,2.0365999,5.8911591,7.0364723,9.631237,9.5264711c1.2086983,0.8047056,2.3365784-1.1432543,1.1356163-1.9428091    c-4.7256737-3.1461725-6.8162537-9.6323872-12.9036579-10.5913649c-4.030344-0.634919-8.5383091-0.0308483-12.5918932,0.0295034    c-2.4930334,0.0371175-6.8611288-0.7918489-9.0360279,0.330286C2.2344851,1.6256897,1.9237128,2.2938492,1.6241337,3.6322944    C0.7586841,7.498909,1.2717791,12.1344032,1.1654371,16.1042576c-0.2492278,9.3039322-0.3518049,18.612505-0.2485386,27.9194431    c0.0187443,1.6893425-0.5251604,4.3955879,0.8001884,5.7740135c1.4416147,1.4993515,6.0196466,1.2070122,7.7730856,1.3306618    c7.7966661,0.5497932,16.5232735,0.8448257,24.3030815-0.0008774c6.0253143-0.6549835,4.7150841-6.1487122,4.7130966-11.0637093    c-0.0037231-9.1950989-0.0074463-18.3901978-0.0111656-27.5852966    C38.4945984,11.0307512,36.2445984,11.0283031,36.2451859,12.4784937L36.2451859,12.4784937z"/></g><g><path class="st0" d="M24.883976,2.7291994c0.2469082,2.2636795,0.4886112,4.5279961,0.7407322,6.7910995    c0.1228638,1.1028624,0.1279831,2.1260853,1.1139374,2.8233175c1.0071201,0.712203,2.530407,0.7821798,3.7377892,0.9059753    c2.098177,0.2151318,4.2097111,0.1363983,6.3129482,0.0597439c1.4435768-0.0526123,1.4505196-2.302865,0-2.25    c-1.3165741,0.0479832-2.6353302,0.1012239-3.9530182,0.0742311c-1.0932503-0.0223961-3.4620094,0.1539783-4.3891411-0.4735851    c-0.8710823-0.5896235-0.683569-2.1578255-0.8039951-3.2619014c-0.1697502-1.5562935-0.3395023-3.1125875-0.5092525-4.6688809    C26.978651,1.3051775,24.726923,1.2893353,24.883976,2.7291994L24.883976,2.7291994z"/></g></g></svg>